HIERARCHY
ROOT Hips
{
	OFFSET 0.000000 0.000000 0.000000
	CHANNELS 6 Xposition Yposition Zposition Zrotation Yrotation Xrotation 
	JOINT LHipJoint
	{
		OFFSET 0.000000 0.000000 0.000000
		CHANNELS 3 Zrotation Yrotation Xrotation
		JOINT LeftUpLeg
		{
			OFFSET 1.363060 -1.794630 0.839290
			CHANNELS 3 Zrotation Yrotation Xrotation
			JOINT LeftLeg
			{
				OFFSET 2.448110 -6.726130 0.000000
				CHANNELS 3 Zrotation Yrotation Xrotation
				JOINT LeftFoot
				{
					OFFSET 2.562200 -7.039590 0.000000
					CHANNELS 3 Zrotation Yrotation Xrotation
					JOINT LeftToeBase
					{
						OFFSET 0.157640 -0.433110 2.322550
						CHANNELS 3 Zrotation Yrotation Xrotation
						End Site
						{
							OFFSET 0.000000 0.000000 0.000000
						}
					}
				}
			}
		}
	}
	JOINT RHipJoint
	{
		OFFSET 0.000000 0.000000 0.000000
		CHANNELS 3 Zrotation Yrotation Xrotation
		JOINT RightUpLeg
		{
			OFFSET -1.305520 -1.794630 0.839290
			CHANNELS 3 Zrotation Yrotation Xrotation
			JOINT RightLeg
			{
				OFFSET -2.542530 -6.985550 0.000000
				CHANNELS 3 Zrotation Yrotation Xrotation
				JOINT RightFoot
				{
					OFFSET -2.568260 -7.056230 0.000000
					CHANNELS 3 Zrotation Yrotation Xrotation
					JOINT RightToeBase
					{
						OFFSET -0.164730 -0.452590 2.363150
						CHANNELS 3 Zrotation Yrotation Xrotation
						End Site
						{
							OFFSET 0.000000 0.000000 0.000000
						}
					}
				}
			}
		}
	}
	JOINT LowerBack
	{
		OFFSET 0.000000 0.000000 0.000000
		CHANNELS 3 Zrotation Yrotation Xrotation
		JOINT Spine
		{
			OFFSET 0.028270 2.035590 -0.193380
			CHANNELS 3 Zrotation Yrotation Xrotation
			JOINT Spine1
			{
				OFFSET 0.056720 2.048850 -0.042750
				CHANNELS 3 Zrotation Yrotation Xrotation
				JOINT Neck
				{
					OFFSET 0.000000 0.000000 0.000000
					CHANNELS 3 Zrotation Yrotation Xrotation
					JOINT Neck1
					{
						OFFSET -0.054170 1.746240 0.172020
						CHANNELS 3 Zrotation Yrotation Xrotation
						JOINT Head
						{
							OFFSET 0.104070 1.761360 -0.123970
							CHANNELS 3 Zrotation Yrotation Xrotation
							End Site
							{
								OFFSET 0.000000 0.000000 0.000000
							}
						}
					}
				}
				JOINT LeftShoulder
				{
					OFFSET 0.000000 0.000000 0.000000
					CHANNELS 3 Zrotation Yrotation Xrotation
					JOINT LeftArm
					{
						OFFSET 3.362410 1.200890 -0.311210
						CHANNELS 3 Zrotation Yrotation Xrotation
						JOINT LeftForeArm
						{
							OFFSET 4.983000 -0.000000 -0.000000
							CHANNELS 3 Zrotation Yrotation Xrotation
							JOINT LeftHand
							{
								OFFSET 3.483560 -0.000000 -0.000000
								CHANNELS 3 Zrotation Yrotation Xrotation
								JOINT LeftFingerBase
								{
									OFFSET 0.000000 0.000000 0.000000
									CHANNELS 3 Zrotation Yrotation Xrotation
									JOINT LeftHandIndex1
									{
										OFFSET 0.715260 -0.000000 -0.000000
										CHANNELS 3 Zrotation Yrotation Xrotation
										End Site
										{
											OFFSET 0.000000 0.000000 0.000000
										}
									}
								}
								JOINT LThumb
								{
									OFFSET 0.000000 0.000000 0.000000
									CHANNELS 3 Zrotation Yrotation Xrotation
									End Site
									{
										OFFSET 0.000000 0.000000 0.000000
									}
								}
							}
						}
					}
				}
				JOINT RightShoulder
				{
					OFFSET 0.000000 0.000000 0.000000
					CHANNELS 3 Zrotation Yrotation Xrotation
					JOINT RightArm
					{
						OFFSET -3.136600 1.374050 -0.404650
						CHANNELS 3 Zrotation Yrotation Xrotation
						JOINT RightForeArm
						{
							OFFSET -5.241900 -0.000000 -0.000000
							CHANNELS 3 Zrotation Yrotation Xrotation
							JOINT RightHand
							{
								OFFSET -3.444170 -0.000000 -0.000000
								CHANNELS 3 Zrotation Yrotation Xrotation
								JOINT RightFingerBase
								{
									OFFSET 0.000000 0.000000 0.000000
									CHANNELS 3 Zrotation Yrotation Xrotation
									JOINT RightHandIndex1
									{
										OFFSET -0.622530 -0.000000 -0.000000
										CHANNELS 3 Zrotation Yrotation Xrotation
										End Site
										{
											OFFSET 0.000000 0.000000 0.000000
										}
									}
								}
								JOINT RThumb
								{
									OFFSET 0.000000 0.000000 0.000000
									CHANNELS 3 Zrotation Yrotation Xrotation
									End Site
									{
										OFFSET 0.000000 0.000000 0.000000
									}
								}
							}
						}
					}
				}
			}
		}
	}
}
MOTION
Frames: 9
Frame Time: 0.008333
-9.401476 17.080199 -2.285454 70.140744 89.816427 92.864893 -9.281568 0.617629 2.749854 -10.181672 -0.068112 -40.006042 -2.635780 0.162213 23.944008 0.860861 2.660354 -8.627997 0.004800 0.000000 -24.294800 11.169127 -3.885042 0.275568 7.906597 -5.708101 -13.683749 0.700455 -2.495926 35.726990 0.622913 16.923242 20.527317 7.645400 -0.000000 -76.212400 -2.438869 -2.006626 -3.158284 -1.129540 -1.938409 -3.420808 -6.075474 -1.966413 0.502438 13.140781 -11.115534 -8.001803 -2.248226 -0.162169 -0.145393 0.000000 0.000000 0.000000 -2.385961 12.056429 1.223783 -58.761045 9.657914 14.355583 -0.451318 -82.833569 -0.015752 4.084916 3.824517 0.138228 -0.147671 0.137070 0.000000 0.000000 0.000000 0.000000 0.000000 0.000000 0.000000 12.051598 -5.755988 0.279249 58.878287 11.590031 21.075301 0.204744 84.931270 0.016394 1.395843 5.814806 0.074347 0.046379 -0.363938 -0.000000 0.000000 0.000000 0.000000 0.000000 0.000000 0.000000 
-9.212038 17.018640 -2.264735 62.594746 89.203514 84.990609 -9.358068 0.626271 2.625856 -10.523239 -0.225998 -39.820984 -2.532868 0.350502 26.401944 0.994465 3.192668 -9.801671 -0.114300 0.000000 -23.858900 11.257795 -3.793225 0.080048 7.165071 -6.409764 -14.946030 0.426856 -2.693744 39.356199 0.459761 16.485655 21.279171 7.723800 0.000001 -76.238100 -3.052278 -2.144928 -2.877770 -1.242740 -2.023042 -3.368157 -6.071869 -2.052278 0.458957 13.269117 -11.210499 -8.017272 -2.235064 -0.160263 -0.154861 0.000000 0.000000 0.000000 -2.477451 11.865855 1.249237 -59.185538 9.209289 14.081122 -0.496214 -82.073085 -0.019226 5.050261 3.994864 0.177476 -0.159364 0.137280 0.000000 0.000000 0.000000 0.000000 0.000000 0.000000 0.000000 12.097387 -5.932408 0.241685 59.039305 11.496923 20.506452 0.195152 85.074624 0.014256 0.972628 5.745004 0.050659 0.051739 -0.365854 -0.000000 0.000000 0.000000 0.000000 0.000000 0.000000 0.000000 
-9.022605 16.965548 -2.242820 57.227573 88.597450 79.316833 -9.392203 0.674592 2.492289 -10.918447 -0.210287 -39.439202 -2.468930 0.490737 28.360863 1.132160 3.748514 -10.989494 -0.256900 -0.000000 -23.856400 11.373227 -3.656089 -0.077807 6.471533 -6.941577 -16.287595 0.146902 -2.868721 42.925963 0.276556 15.490266 21.942650 7.508900 0.000000 -75.518900 -3.587348 -2.247286 -2.626324 -1.340813 -2.079629 -3.320825 -6.067067 -2.110230 0.422131 13.344495 -11.288885 -8.015156 -2.223328 -0.158775 -0.158695 0.000000 0.000000 0.000000 -2.597773 11.686208 1.266478 -59.592435 8.634272 13.909418 -0.546428 -81.190050 -0.023072 6.124154 4.154808 0.223026 -0.172131 0.137449 0.000000 0.000000 0.000000 0.000000 0.000000 0.000000 0.000000 12.103252 -6.094438 0.198809 59.241734 11.390884 20.012592 0.190955 85.133255 0.011969 0.548492 5.622371 0.027263 0.056866 -0.366206 -0.000000 0.000000 0.000000 0.000000 0.000000 0.000000 0.000000 
-8.832681 16.922343 -2.220435 52.692607 87.977081 74.504247 -9.411426 0.745341 2.354096 -11.346708 -0.030238 -38.868079 -2.442188 0.582056 29.793182 1.270211 4.303184 -12.170059 -0.422300 0.000000 -24.292900 11.483469 -3.491649 -0.195394 5.849594 -7.293997 -17.700832 -0.128048 -3.026403 46.382914 0.076616 13.928983 22.406012 6.957200 0.000000 -74.116800 -4.051241 -2.323199 -2.412964 -1.423729 -2.116479 -3.280067 -6.057721 -2.148755 0.393664 13.365921 -11.347952 -7.994698 -2.214414 -0.157855 -0.156435 0.000000 0.000000 0.000000 -2.746979 11.519008 1.275065 -59.992770 7.956228 13.837101 -0.599258 -80.225375 -0.027121 7.265821 4.288549 0.272377 -0.185335 0.137780 0.000000 0.000000 0.000000 0.000000 0.000000 0.000000 0.000000 12.075880 -6.242075 0.152075 59.454782 11.280540 19.617468 0.190995 85.119128 0.009636 0.140993 5.442657 0.005560 0.061527 -0.364841 -0.000000 0.000000 0.000000 0.000000 0.000000 0.000000 0.000000 
-8.641975 16.890036 -2.198273 48.513520 87.335168 70.076645 -9.427521 0.831868 2.214621 -11.782736 0.299435 -38.114310 -2.448618 0.626947 30.698302 1.404830 4.837430 -13.309068 -0.605301 0.000000 -25.109000 11.575507 -3.307830 -0.274003 5.315388 -7.468814 -19.172225 -0.392326 -3.169532 49.682456 -0.137718 11.843489 22.566481 6.069300 -0.000000 -72.149700 -4.440094 -2.376362 -2.239115 -1.489892 -2.137010 -3.245557 -6.041393 -2.171271 0.376196 13.336095 -11.387315 -7.958044 -2.209156 -0.157544 -0.148593 0.000000 0.000000 0.000000 -2.918392 11.376796 1.274345 -60.402521 7.189065 13.863620 -0.652379 -79.218769 -0.031184 8.425211 4.380820 0.322026 -0.198317 0.138518 0.000000 0.000000 0.000000 0.000000 0.000000 0.000000 0.000000 12.023793 -6.373947 0.103689 59.646053 11.180545 19.342392 0.194107 85.045643 0.007381 -0.230582 5.204625 -0.012950 0.065519 -0.361694 -0.000000 0.000000 0.000000 0.000000 0.000000 0.000000 0.000000 
-8.450208 16.869071 -2.177270 44.434443 86.675251 65.777045 -9.452613 0.928001 2.076617 -12.188804 0.764472 -37.194877 -2.481053 0.630643 31.107042 1.530071 5.328231 -14.361144 -0.795800 0.000000 -26.204400 11.637932 -3.111833 -0.315733 4.894724 -7.467538 -20.684573 -0.642525 -3.299085 52.781954 -0.364855 9.309825 22.342104 4.890100 0.000000 -69.771900 -4.737384 -2.408576 -2.103991 -1.535468 -2.143807 -3.217692 -6.016280 -2.180389 0.368053 13.255770 -11.403844 -7.905452 -2.208252 -0.157903 -0.135134 0.000000 0.000000 0.000000 -3.109768 11.257364 1.264217 -60.835989 6.369122 13.976091 -0.702946 -78.225174 -0.035068 9.545689 4.420605 0.367471 -0.210395 0.139870 0.000000 0.000000 0.000000 0.000000 0.000000 0.000000 0.000000 11.949642 -6.484147 0.057590 59.785363 11.098609 19.202005 0.198952 84.928721 0.005355 -0.542687 4.908785 -0.026669 0.068598 -0.356751 0.000000 0.000000 0.000000 0.000000 0.000000 0.000000 0.000000 
-8.257184 16.859356 -2.158334 40.305457 86.004595 61.454337 -9.498170 1.028525 1.943165 -12.523071 1.346775 -36.136167 -2.530398 0.600444 31.074203 1.638751 5.754087 -15.273950 -0.979100 -0.000000 -27.461300 11.661628 -2.909612 -0.323467 4.616640 -7.294200 -22.221555 -0.876536 -3.414088 55.643151 -0.603715 6.435152 21.679942 3.505301 -0.000000 -67.109200 -4.921843 -2.420876 -2.006106 -1.555949 -2.139188 -3.197478 -5.981067 -2.178481 0.364599 13.125456 -11.397002 -7.836307 -2.212222 -0.158992 -0.115759 0.000000 0.000000 0.000000 -3.320082 11.142355 1.244443 -61.305326 5.553025 14.149590 -0.747735 -77.310411 -0.038576 10.568996 4.400270 0.404312 -0.220914 0.142026 0.000000 0.000000 0.000000 0.000000 0.000000 0.000000 0.000000 11.853714 -6.569226 0.019535 59.844738 11.043085 19.207334 0.204331 84.783789 0.003702 -0.772605 4.557695 -0.034697 0.070590 -0.350052 -0.000000 0.000000 0.000000 0.000000 0.000000 0.000000 0.000000 
-8.062838 16.860344 -2.141575 36.179953 85.324757 57.157767 -9.563498 1.132516 1.816195 -12.765346 2.009799 -34.951982 -2.587239 0.543017 30.658114 1.725915 6.112638 -15.990409 -1.139300 -0.000001 -28.764700 11.651151 -2.702744 -0.303261 4.483353 -6.968274 -23.764540 -1.091867 -3.513953 58.233215 -0.853070 3.359275 20.558647 2.034300 0.000000 -64.286000 -4.989804 -2.416698 -1.938228 -1.550690 -2.126655 -3.183258 -5.934995 -2.168862 0.366161 12.952459 -11.369580 -7.755833 -2.220378 -0.160658 -0.092138 0.000000 0.000000 0.000000 -3.530144 11.038892 1.216005 -61.823966 4.753829 14.382553 -0.785468 -76.510411 -0.041611 11.444932 4.316563 0.428649 -0.229562 0.145262 0.000000 0.000000 0.000000 0.000000 0.000000 0.000000 0.000000 11.740639 -6.629252 -0.007694 59.808586 11.022084 19.360479 0.209333 84.627004 0.002551 -0.897898 4.157617 -0.036733 0.071234 -0.341732 -0.000000 0.000000 0.000000 0.000000 0.000000 0.000000 0.000000 
-7.867092 16.871047 -2.126997 32.103556 84.644255 52.931536 -9.649156 1.238187 1.698209 -12.894557 2.717047 -33.666952 -2.641646 0.466590 29.933813 1.787100 6.404043 -16.461197 -1.261400 -0.000000 -30.031800 11.609396 -2.494101 -0.260272 4.501820 -6.508429 -25.296431 -1.284938 -3.597741 60.521286 -1.110321 0.229013 18.985539 0.604700 0.000000 -61.322900 -4.935322 -2.400069 -1.894863 -1.518780 -2.110630 -3.174470 -5.878050 -2.155831 0.369870 12.742769 -11.324481 -7.667426 -2.232073 -0.162788 -0.065367 0.000000 0.000000 0.000000 -3.724174 10.936693 1.180084 -62.398183 4.002496 14.664542 -0.814648 -75.865358 -0.044100 12.131639 4.170888 0.437884 -0.236091 0.149800 0.000000 0.000000 0.000000 0.000000 0.000000 0.000000 0.000000 11.611827 -6.665236 -0.020420 59.668291 11.037391 19.655653 0.213194 84.474454 0.002000 -0.898797 3.716877 -0.032978 0.070303 -0.331967 0.000000 0.000000 0.000000 0.000000 0.000000 0.000000 0.000000 
